<svg width="24" height="25" viewBox="0 0 24 25" fill="none" xmlns="http://www.w3.org/2000/svg">
<path d="M4.66634 4.10091H15.333V10.6342H16.6663V4.10091C16.6663 3.74729 16.5259 3.40815 16.2758 3.1581C16.0258 2.90805 15.6866 2.76758 15.333 2.76758H4.66634C4.31272 2.76758 3.97358 2.90805 3.72353 3.1581C3.47348 3.40815 3.33301 3.74729 3.33301 4.10091V20.1009C3.33301 20.4545 3.47348 20.7937 3.72353 21.0437C3.97358 21.2938 4.31272 21.4342 4.66634 21.4342H15.333C15.6866 21.4342 16.0258 21.2938 16.2758 21.0437C16.5259 20.7937 16.6663 20.4545 16.6663 20.1009H4.66634V4.10091Z" fill="black"/>
<path d="M18.7729 11.6212C18.6454 11.512 18.4813 11.455 18.3136 11.4614C18.1458 11.4679 17.9866 11.5375 17.8679 11.6562C17.7492 11.7749 17.6796 11.9341 17.6731 12.1019C17.6666 12.2697 17.7237 12.4337 17.8329 12.5612L20.0863 14.7679H10.4196C10.2428 14.7679 10.0732 14.8381 9.94819 14.9632C9.82317 15.0882 9.75293 15.2578 9.75293 15.4346C9.75293 15.6114 9.82317 15.781 9.94819 15.906C10.0732 16.031 10.2428 16.1012 10.4196 16.1012H20.0863L17.8329 18.4079C17.7631 18.4677 17.7065 18.5412 17.6664 18.6239C17.6264 18.7066 17.6039 18.7967 17.6004 18.8885C17.5969 18.9804 17.6123 19.0719 17.6458 19.1575C17.6794 19.243 17.7302 19.3207 17.7952 19.3857C17.8601 19.4506 17.9378 19.5015 18.0234 19.535C18.1089 19.5685 18.2005 19.584 18.2923 19.5804C18.3841 19.5769 18.4742 19.5544 18.5569 19.5144C18.6396 19.4744 18.7132 19.4177 18.7729 19.3479L22.6663 15.4812L18.7729 11.6212Z" fill="black"/>
</svg>
