<svg width="24" height="25" viewBox="0 0 24 25" fill="none" xmlns="http://www.w3.org/2000/svg">
<path d="M2 21.2119V9.21191L10 3.21191L15.375 7.26191C14.9583 7.31191 14.5667 7.40775 14.2 7.54941C13.8333 7.69108 13.4833 7.87858 13.15 8.11191L10 5.71191L4 10.2119V19.2119H8V21.2119H2ZM10 21.2119V19.3119C10 18.9619 10.0875 18.6327 10.2625 18.3244C10.4375 18.0161 10.675 17.7702 10.975 17.5869C11.7417 17.1369 12.5458 16.7952 13.3875 16.5619C14.2292 16.3286 15.1 16.2119 16 16.2119C16.9 16.2119 17.7708 16.3286 18.6125 16.5619C19.4542 16.7952 20.2583 17.1369 21.025 17.5869C21.325 17.7702 21.5625 18.0161 21.7375 18.3244C21.9125 18.6327 22 18.9619 22 19.3119V21.2119H10ZM12.15 19.2119H19.85C19.2667 18.8786 18.65 18.6286 18 18.4619C17.35 18.2952 16.6833 18.2119 16 18.2119C15.3167 18.2119 14.65 18.2952 14 18.4619C13.35 18.6286 12.7333 18.8786 12.15 19.2119ZM16 15.2119C15.1667 15.2119 14.4583 14.9202 13.875 14.3369C13.2917 13.7536 13 13.0452 13 12.2119C13 11.3786 13.2917 10.6702 13.875 10.0869C14.4583 9.50358 15.1667 9.21191 16 9.21191C16.8333 9.21191 17.5417 9.50358 18.125 10.0869C18.7083 10.6702 19 11.3786 19 12.2119C19 13.0452 18.7083 13.7536 18.125 14.3369C17.5417 14.9202 16.8333 15.2119 16 15.2119ZM16 13.2119C16.2833 13.2119 16.5208 13.1161 16.7125 12.9244C16.9042 12.7327 17 12.4952 17 12.2119C17 11.9286 16.9042 11.6911 16.7125 11.4994C16.5208 11.3077 16.2833 11.2119 16 11.2119C15.7167 11.2119 15.4792 11.3077 15.2875 11.4994C15.0958 11.6911 15 11.9286 15 12.2119C15 12.4952 15.0958 12.7327 15.2875 12.9244C15.4792 13.1161 15.7167 13.2119 16 13.2119Z" fill="#AFAEAE"/>
</svg>
